
        <svg xmlns="http://www.w3.org/2000/svg" xmlns:xlink="http://www.w3.org/1999/xlink" version="1.1" width="3169.1921659147715" height="930.556912531242" viewBox="0 0 3169.1921659147715 930.556912531242">
			
			<g transform="scale(8.459608295738564) translate(10, 10)">
				<defs id="SvgjsDefs1992"/><g id="SvgjsG1993" featureKey="sloganFeature-0" transform="matrix(0.8964143460354077,0,0,0.8964143460354077,30.569721310527093,67.67928312567328)" fill="#fff"><path d="M8.04 11.92 l-2.64 8.08 l-1.6 0 l-3.32 -9.94 l1.52 0 l2.62 8.24 l0 0 l2.7 -8.24 l1.48 0 l2.7 8.26 l0.02 0 l2.64 -8.26 l1.5 0 l-3.36 9.94 l-1.6 0 l-2.64 -8.08 l-0.02 0 z M29.753999999999998 20 l-1.46 0 l0 -5.78 c0 -0.92 -0.22 -1.64 -0.7 -2.2 c-0.46 -0.54 -1.14 -0.82 -2.04 -0.82 c-0.86 0 -1.58 0.3 -2.14 0.9 c-0.54 0.6 -0.82 1.34 -0.82 2.24 l0 5.66 l-1.46 0 l0 -15.16 l1.46 0 l0 7 c0.78 -1.32 1.92 -1.96 3.4 -1.96 c1.18 0 2.1 0.36 2.78 1.08 c0.64 0.74 0.98 1.7 0.98 2.9 l0 6.14 z M45.068 15.48 l-8.04 0 c0.06 0.98 0.42 1.78 1.1 2.42 c0.68 0.66 1.5 0.98 2.46 0.98 c1.5 0 2.62 -0.74 3.08 -2.12 l1.28 0.4 c-0.28 0.94 -0.82 1.68 -1.62 2.22 c-0.8 0.52 -1.7 0.8 -2.72 0.8 c-0.94 0 -1.8 -0.24 -2.58 -0.7 s-1.38 -1.08 -1.8 -1.88 c-0.44 -0.78 -0.66 -1.64 -0.66 -2.58 c0 -0.9 0.2 -1.74 0.62 -2.52 c0.4 -0.8 0.98 -1.42 1.74 -1.9 c0.74 -0.48 1.58 -0.72 2.48 -0.72 c0.98 0 1.84 0.22 2.56 0.68 c0.72 0.44 1.26 1.06 1.6 1.82 c0.36 0.76 0.52 1.62 0.52 2.62 c0 0.1 0 0.26 -0.02 0.48 z M37.047999999999995 14.24 l6.58 0 c-0.1 -0.92 -0.44 -1.66 -1 -2.24 c-0.56 -0.56 -1.3 -0.84 -2.22 -0.84 c-0.86 0 -1.58 0.3 -2.22 0.9 c-0.64 0.62 -1.02 1.34 -1.14 2.18 z M50.961999999999996 10.06 l1.42 0 l0 1.96 c0.48 -0.98 1.28 -1.64 2.04 -1.92 c0.38 -0.14 0.78 -0.2 1.18 -0.2 c0.22 0 0.38 0 0.48 0.04 l0 1.54 c-0.16 -0.04 -0.36 -0.04 -0.56 -0.04 c-2.36 0 -3.1 1.94 -3.1 3.7 l0 4.86 l-1.46 0 l0 -9.94 z M70.196 15.48 l-8.04 0 c0.06 0.98 0.42 1.78 1.1 2.42 c0.68 0.66 1.5 0.98 2.46 0.98 c1.5 0 2.62 -0.74 3.08 -2.12 l1.28 0.4 c-0.28 0.94 -0.82 1.68 -1.62 2.22 c-0.8 0.52 -1.7 0.8 -2.72 0.8 c-0.94 0 -1.8 -0.24 -2.58 -0.7 s-1.38 -1.08 -1.8 -1.88 c-0.44 -0.78 -0.66 -1.64 -0.66 -2.58 c0 -0.9 0.2 -1.74 0.62 -2.52 c0.4 -0.8 0.98 -1.42 1.74 -1.9 c0.74 -0.48 1.58 -0.72 2.48 -0.72 c0.98 0 1.84 0.22 2.56 0.68 c0.72 0.44 1.26 1.06 1.6 1.82 c0.36 0.76 0.52 1.62 0.52 2.62 c0 0.1 0 0.26 -0.02 0.48 z M62.175999999999995 14.24 l6.58 0 c-0.1 -0.92 -0.44 -1.66 -1 -2.24 c-0.56 -0.56 -1.3 -0.84 -2.22 -0.84 c-0.86 0 -1.58 0.3 -2.22 0.9 c-0.64 0.62 -1.02 1.34 -1.14 2.18 z M91.22399999999999 17.18 c0 0.88 -0.34 1.6 -1.02 2.14 c-0.68 0.56 -1.52 0.84 -2.5 0.84 c-1.6 0 -2.64 -0.66 -3.18 -1.44 c-0.4 -0.54 -0.54 -1.02 -0.6 -1.52 l1.32 -0.34 c0.16 0.92 0.86 2.04 2.44 2.04 c0.56 0 1.04 -0.16 1.46 -0.46 c0.4 -0.28 0.6 -0.68 0.6 -1.18 c0 -0.4 -0.16 -0.72 -0.48 -0.96 c-0.32 -0.26 -0.7 -0.42 -1.14 -0.52 l-1.52 -0.34 c-1.64 -0.36 -2.48 -1.24 -2.48 -2.6 c0 -1.02 0.52 -1.86 1.24 -2.3 c0.7 -0.44 1.46 -0.66 2.14 -0.66 c1.5 0.02 2.46 0.6 2.98 1.32 c0.36 0.5 0.52 0.92 0.6 1.34 l-1.32 0.38 c-0.1 -0.4 -0.26 -0.72 -0.58 -1.12 c-0.34 -0.4 -0.94 -0.64 -1.68 -0.64 c-0.54 0 -0.98 0.14 -1.36 0.46 c-0.38 0.3 -0.56 0.68 -0.56 1.12 c0 0.78 0.56 1.14 1.44 1.36 l1.6 0.36 c1.3 0.3 2.6 1.12 2.6 2.72 z M100.65799999999999 20.08 c-2.16 0 -2.82 -1.2 -2.82 -2.66 l0 -6.08 l-1.84 0 l0 -1.28 l1.84 0 l0 -2.86 l1.44 0 l0 2.86 l2.52 0 l0 1.28 l-2.52 0 l0 6.06 c0 0.92 0.54 1.4 1.62 1.4 c0.34 0 0.64 -0.04 0.9 -0.08 l0 1.2 c-0.32 0.1 -0.7 0.16 -1.14 0.16 z M109.91199999999999 24.9 l-1.58 0 l2.58 -5.58 l-4.52 -9.26 l1.66 0 l3.64 7.68 l3.46 -7.68 l1.56 0 z M122.06599999999999 20 l0 -15.18 l1.46 0 l0 15.18 l-1.46 0 z M138.95999999999998 15.48 l-8.04 0 c0.06 0.98 0.42 1.78 1.1 2.42 c0.68 0.66 1.5 0.98 2.46 0.98 c1.5 0 2.62 -0.74 3.08 -2.12 l1.28 0.4 c-0.28 0.94 -0.82 1.68 -1.62 2.22 c-0.8 0.52 -1.7 0.8 -2.72 0.8 c-0.94 0 -1.8 -0.24 -2.58 -0.7 s-1.38 -1.08 -1.8 -1.88 c-0.44 -0.78 -0.66 -1.64 -0.66 -2.58 c0 -0.9 0.2 -1.74 0.62 -2.52 c0.4 -0.8 0.98 -1.42 1.74 -1.9 c0.74 -0.48 1.58 -0.72 2.48 -0.72 c0.98 0 1.84 0.22 2.56 0.68 c0.72 0.44 1.26 1.06 1.6 1.82 c0.36 0.76 0.52 1.62 0.52 2.62 c0 0.1 0 0.26 -0.02 0.48 z M130.94 14.24 l6.58 0 c-0.1 -0.92 -0.44 -1.66 -1 -2.24 c-0.56 -0.56 -1.3 -0.84 -2.22 -0.84 c-0.86 0 -1.58 0.3 -2.22 0.9 c-0.64 0.62 -1.02 1.34 -1.14 2.18 z M161.62800000000001 20 l-1.42 0 l0 -5.84 c0 -0.86 -0.22 -1.58 -0.64 -2.14 c-0.44 -0.54 -1.08 -0.82 -1.92 -0.82 s-1.52 0.3 -2.02 0.92 s-0.74 1.36 -0.74 2.22 l0 5.66 l-1.46 0 l0 -9.94 l1.42 0 l0 1.72 c0.86 -1.28 1.8 -1.9 3.22 -1.9 c1.44 0 2.58 0.7 3.18 2 c0.84 -1.34 2.02 -2 3.5 -2 c1.16 0 2.06 0.36 2.72 1.1 c0.62 0.72 0.94 1.68 0.94 2.88 l0 6.14 l-1.44 0 l0 -5.78 c0 -0.9 -0.2 -1.62 -0.64 -2.18 c-0.42 -0.54 -1.06 -0.84 -1.94 -0.84 c-0.84 0 -1.5 0.3 -2 0.9 c-0.5 0.58 -0.76 1.32 -0.76 2.18 l0 5.72 z M183.722 15.48 l-8.04 0 c0.06 0.98 0.42 1.78 1.1 2.42 c0.68 0.66 1.5 0.98 2.46 0.98 c1.5 0 2.62 -0.74 3.08 -2.12 l1.28 0.4 c-0.28 0.94 -0.82 1.68 -1.62 2.22 c-0.8 0.52 -1.7 0.8 -2.72 0.8 c-0.94 0 -1.8 -0.24 -2.58 -0.7 s-1.38 -1.08 -1.8 -1.88 c-0.44 -0.78 -0.66 -1.64 -0.66 -2.58 c0 -0.9 0.2 -1.74 0.62 -2.52 c0.4 -0.8 0.98 -1.42 1.74 -1.9 c0.74 -0.48 1.58 -0.72 2.48 -0.72 c0.98 0 1.84 0.22 2.56 0.68 c0.72 0.44 1.26 1.06 1.6 1.82 c0.36 0.76 0.52 1.62 0.52 2.62 c0 0.1 0 0.26 -0.02 0.48 z M175.70200000000003 14.24 l6.58 0 c-0.1 -0.92 -0.44 -1.66 -1 -2.24 c-0.56 -0.56 -1.3 -0.84 -2.22 -0.84 c-0.86 0 -1.58 0.3 -2.22 0.9 c-0.64 0.62 -1.02 1.34 -1.14 2.18 z M198.39600000000002 15.48 l-8.04 0 c0.06 0.98 0.42 1.78 1.1 2.42 c0.68 0.66 1.5 0.98 2.46 0.98 c1.5 0 2.62 -0.74 3.08 -2.12 l1.28 0.4 c-0.28 0.94 -0.82 1.68 -1.62 2.22 c-0.8 0.52 -1.7 0.8 -2.72 0.8 c-0.94 0 -1.8 -0.24 -2.58 -0.7 s-1.38 -1.08 -1.8 -1.88 c-0.44 -0.78 -0.66 -1.64 -0.66 -2.58 c0 -0.9 0.2 -1.74 0.62 -2.52 c0.4 -0.8 0.98 -1.42 1.74 -1.9 c0.74 -0.48 1.58 -0.72 2.48 -0.72 c0.98 0 1.84 0.22 2.56 0.68 c0.72 0.44 1.26 1.06 1.6 1.82 c0.36 0.76 0.52 1.62 0.52 2.62 c0 0.1 0 0.26 -0.02 0.48 z M190.37600000000003 14.24 l6.58 0 c-0.1 -0.92 -0.44 -1.66 -1 -2.24 c-0.56 -0.56 -1.3 -0.84 -2.22 -0.84 c-0.86 0 -1.58 0.3 -2.22 0.9 c-0.64 0.62 -1.02 1.34 -1.14 2.18 z M207.77000000000004 20.08 c-2.16 0 -2.82 -1.2 -2.82 -2.66 l0 -6.08 l-1.84 0 l0 -1.28 l1.84 0 l0 -2.86 l1.44 0 l0 2.86 l2.52 0 l0 1.28 l-2.52 0 l0 6.06 c0 0.92 0.54 1.4 1.62 1.4 c0.34 0 0.64 -0.04 0.9 -0.08 l0 1.2 c-0.32 0.1 -0.7 0.16 -1.14 0.16 z M221.30400000000003 17.18 c0 0.88 -0.34 1.6 -1.02 2.14 c-0.68 0.56 -1.52 0.84 -2.5 0.84 c-1.6 0 -2.64 -0.66 -3.18 -1.44 c-0.4 -0.54 -0.54 -1.02 -0.6 -1.52 l1.32 -0.34 c0.16 0.92 0.86 2.04 2.44 2.04 c0.56 0 1.04 -0.16 1.46 -0.46 c0.4 -0.28 0.6 -0.68 0.6 -1.18 c0 -0.4 -0.16 -0.72 -0.48 -0.96 c-0.32 -0.26 -0.7 -0.42 -1.14 -0.52 l-1.52 -0.34 c-1.64 -0.36 -2.48 -1.24 -2.48 -2.6 c0 -1.02 0.52 -1.86 1.24 -2.3 c0.7 -0.44 1.46 -0.66 2.14 -0.66 c1.5 0.02 2.46 0.6 2.98 1.32 c0.36 0.5 0.52 0.92 0.6 1.34 l-1.32 0.38 c-0.1 -0.4 -0.26 -0.72 -0.58 -1.12 c-0.34 -0.4 -0.94 -0.64 -1.68 -0.64 c-0.54 0 -0.98 0.14 -1.36 0.46 c-0.38 0.3 -0.56 0.68 -0.56 1.12 c0 0.78 0.56 1.14 1.44 1.36 l1.6 0.36 c1.3 0.3 2.6 1.12 2.6 2.72 z M235.79200000000006 7.279999999999999 c-0.2 -0.22 -0.32 -0.48 -0.32 -0.78 s0.12 -0.56 0.32 -0.78 c0.2 -0.2 0.48 -0.32 0.78 -0.32 s0.56 0.12 0.76 0.32 c0.22 0.22 0.32 0.48 0.32 0.78 s-0.1 0.56 -0.32 0.78 c-0.2 0.2 -0.46 0.32 -0.76 0.32 s-0.58 -0.12 -0.78 -0.32 z M235.83200000000005 20 l0 -9.94 l1.46 0 l0 9.94 l-1.46 0 z M243.22600000000006 15.02 c0 -1.3 0.48 -2.58 1.28 -3.54 c0.8 -0.98 2.02 -1.6 3.38 -1.6 c0.92 0 1.74 0.26 2.36 0.7 s1.06 0.92 1.5 1.56 l0 -7.3 l1.44 0 l0 15.16 l-1.42 0 l0 -2.12 c-0.92 1.52 -2.22 2.26 -3.88 2.26 c-1.38 0 -2.6 -0.6 -3.4 -1.54 c-0.78 -0.94 -1.26 -2.22 -1.26 -3.58 z M248.18600000000006 18.88 c2.04 0.02 3.62 -1.88 3.58 -3.88 c0 -1.3 -0.64 -2.54 -1.74 -3.28 c-0.56 -0.36 -1.18 -0.54 -1.84 -0.54 c-1.06 0 -1.9 0.36 -2.52 1.1 c-0.64 0.74 -0.96 1.66 -0.96 2.78 c0 1.38 0.56 2.56 1.62 3.28 c0.54 0.36 1.16 0.54 1.86 0.54 z M268.62000000000006 15.48 l-8.04 0 c0.06 0.98 0.42 1.78 1.1 2.42 c0.68 0.66 1.5 0.98 2.46 0.98 c1.5 0 2.62 -0.74 3.08 -2.12 l1.28 0.4 c-0.28 0.94 -0.82 1.68 -1.62 2.22 c-0.8 0.52 -1.7 0.8 -2.72 0.8 c-0.94 0 -1.8 -0.24 -2.58 -0.7 s-1.38 -1.08 -1.8 -1.88 c-0.44 -0.78 -0.66 -1.64 -0.66 -2.58 c0 -0.9 0.2 -1.74 0.62 -2.52 c0.4 -0.8 0.98 -1.42 1.74 -1.9 c0.74 -0.48 1.58 -0.72 2.48 -0.72 c0.98 0 1.84 0.22 2.56 0.68 c0.72 0.44 1.26 1.06 1.6 1.82 c0.36 0.76 0.52 1.62 0.52 2.62 c0 0.1 0 0.26 -0.02 0.48 z M260.6 14.24 l6.58 0 c-0.1 -0.92 -0.44 -1.66 -1 -2.24 c-0.56 -0.56 -1.3 -0.84 -2.22 -0.84 c-0.86 0 -1.58 0.3 -2.22 0.9 c-0.64 0.62 -1.02 1.34 -1.14 2.18 z M283.134 20 l-1.46 0 l0 -5.78 c0 -0.92 -0.22 -1.64 -0.7 -2.2 c-0.46 -0.54 -1.14 -0.82 -2.04 -0.82 c-0.86 0 -1.58 0.3 -2.14 0.9 c-0.54 0.6 -0.82 1.34 -0.82 2.24 l0 5.66 l-1.46 0 l0 -9.94 l1.42 0 l0 1.82 c0.8 -1.34 1.94 -2 3.44 -2 c1.18 0 2.1 0.36 2.78 1.08 c0.64 0.74 0.98 1.7 0.98 2.9 l0 6.14 z M293.148 20.08 c-2.16 0 -2.82 -1.2 -2.82 -2.66 l0 -6.08 l-1.84 0 l0 -1.28 l1.84 0 l0 -2.86 l1.44 0 l0 2.86 l2.52 0 l0 1.28 l-2.52 0 l0 6.06 c0 0.92 0.54 1.4 1.62 1.4 c0.34 0 0.64 -0.04 0.9 -0.08 l0 1.2 c-0.32 0.1 -0.7 0.16 -1.14 0.16 z M300.08200000000005 7.279999999999999 c-0.2 -0.22 -0.32 -0.48 -0.32 -0.78 s0.12 -0.56 0.32 -0.78 c0.2 -0.2 0.48 -0.32 0.78 -0.32 s0.56 0.12 0.76 0.32 c0.22 0.22 0.32 0.48 0.32 0.78 s-0.1 0.56 -0.32 0.78 c-0.2 0.2 -0.46 0.32 -0.76 0.32 s-0.58 -0.12 -0.78 -0.32 z M300.122 20 l0 -9.94 l1.46 0 l0 9.94 l-1.46 0 z M311.716 20.08 c-2.16 0 -2.82 -1.2 -2.82 -2.66 l0 -6.08 l-1.84 0 l0 -1.28 l1.84 0 l0 -2.86 l1.44 0 l0 2.86 l2.52 0 l0 1.28 l-2.52 0 l0 6.06 c0 0.92 0.54 1.4 1.62 1.4 c0.34 0 0.64 -0.04 0.9 -0.08 l0 1.2 c-0.32 0.1 -0.7 0.16 -1.14 0.16 z M320.97 24.9 l-1.58 0 l2.58 -5.58 l-4.52 -9.26 l1.66 0 l3.64 7.68 l3.46 -7.68 l1.56 0 z"/></g><g id="SvgjsG1994" featureKey="nameLeftFeature-0" transform="matrix(1.2228261439978314,0,0,1.2228261439978314,-0.9782611484338425,1.7445655786529333)" fill="#fff"><path d="M13.6 13.719999999999999 l0 26.28 l-3.04 0 l0 -26.28 l-9.76 0 l0 -2.88 l22.56 0 l0 2.88 l-9.76 0 z M53.416 40 l-3.72 0 l-8.64 -11.8 l-5.92 0 l0 11.8 l-3.08 0 l0 -29.16 l10.12 0 c3.44 0 6.2 0.96 7.8 2.56 s2.44 3.6 2.44 5.96 c0 4.92 -3.68 7.76 -8 8.32 z M35.136 13.719999999999999 l0 11.68 l6.76 0 c2.56 0 4.56 -0.72 5.72 -1.88 c1.12 -1.12 1.68 -2.52 1.68 -4.08 c0 -2.88 -1.76 -5.72 -7.32 -5.72 l-6.84 0 z M81.19200000000001 10.84 l3.08 0 l0 17.76 c0 3.68 -1 6.56 -2.88 8.6 c-1.92 2.04 -4.64 3.08 -8.12 3.08 c-3.44 0 -6.16 -1.04 -8.04 -3.12 c-1.92 -2.08 -2.88 -4.84 -2.88 -8.36 l0 -17.96 l3.04 0 l0 17.8 c0 3.08 0.88 5.44 2.32 6.76 c1.48 1.36 3.36 2 5.72 2 c2.48 0 4.4 -0.72 5.76 -2.24 c1.32 -1.52 2 -3.6 2 -6.36 l0 -17.96 z M95.808 40 l0 -29.16 l18.24 0 l0 2.84 l-15.16 0 l0 10.08 l13.88 0 l0 2.84 l-13.88 0 l0 10.56 l15.32 0 l0 2.84 l-18.4 0 z"/></g><g id="SvgjsG1995" featureKey="inlineSymbolFeature-0" transform="matrix(0.7526040506893973,0,0,0.7526040506893973,146.32335853720153,-5.789496104581506)" fill="#fff"><path xmlns="http://www.w3.org/2000/svg" d="M77.587,21.834C69.241,31.037,63.79,40.964,60.87,47.13c3.399-15.091,7.143-15.352,7.143-15.352s1.301-0.9,0.855-2.227  c-0.446-1.324-1.163,1.019-1.163,1.019c-5.01,2.411-7.461,17.435-7.578,18.164c-1.253,2.772-1.858,4.461-1.858,4.461l-0.211,0.398  c0.12-1.215,0.266-2.558,0.445-4.006c0,0,0.537-1.577,0.71-4.398c1.19-4.835,2.495-12.244,0.252-15.189c0,0,0.426-2.415-0.573-1.435  c-0.999,0.978-0.249,2.372-0.249,2.372s2.395,1.434,0.602,11.447c-0.236-6.862-2.863-18.082-14.554-31.28  c0,0-15.384-13.628-15.071,13.593C29.837,43.485,41.565,50.5,48.813,53.045c-5.977-1.056-15.314-1.418-20.763,4.839  c-8.305,9.535-30.154,38.946,25.923,4.424c-9.812,28.697-2.056,34.318,0.774,30.356c2.928-4.101,13.176-18.74,12.298-26.646  c-0.634-5.699-3.542-8.346-5.121-9.384c3.685,1.018,12.847-4.813,19.175-14.039C86.532,34.673,91.421,6.58,77.587,21.834z   M33.231,72.798c-7.142,2.498,3.138-4.554,3.138-4.554c-7.063,4.239-10.733,5.808-10.733,5.808  c-0.669-3.039,2.884-4.238,2.884-4.238c-5.65,0.941-1.255-5.179-1.255-5.179c2.198-5.495,6.906-8.164,8.005-8.687  c1.1-0.523-7.22,1.935,0.315-0.89c5.482-2.056,11.876-1.768,14.961-1.459c1.154,0.116,1.859,0.234,1.859,0.234c0,0-0.001,0-0.001,0  c-17.713-6.563-21.45-24.675-21.45-24.675c-0.91-4.222,3.131-0.47,6.412,3.087c-2.604-3.171-5.653-7.305-6.177-9.837  c-0.943-4.551,1.256-2.844,1.256-2.844c2.333,2.853,10.83,13.675,10.83,13.675s-8.477-11.93-9.418-13.675  c-0.943-1.745-1.412-4.219-1.412-4.219c0-6.907,3.767-4.009,3.767-4.009c1.79,1.374,4.023,5.139,5.457,7.791  c-1.997-4.396-2.005-7.236-2.005-7.236c1.1-2.041,5.025,2.197,5.025,2.197c14.696,20.14,12.877,32.14,12.133,34.978  c-0.114,0.436-0.203,0.655-0.204,0.655l-1.098,6.228C54.422,62.177,40.372,70.3,33.231,72.798z M81.812,27.481  c0,0-1.422,2.524-2.645,4.199S68.858,44.45,68.858,44.45s8.534-9.925,10.815-12.526c0,0,1.655-1.419-0.988,3.211  c-1.471,2.577-4.66,6.402-7.201,9.291c2.98-3.178,6.332-6.431,3.868-2.145c0,0-4.77,9.933-14.456,13.781  c0,0,0.699,3.336,1.976,7.613c1.263,4.233-1.049,15.994-3.529,6.224c0.266,1.225,0.944,5.498-0.629,10.37  c0,0-1.521,7.207-3.074,5.238c0,0,0.669,1.877-1.111,4.959c0,0-0.524-2.284-0.916-7.969c0,0,0.124,9.202-1.178,5.335  c-1.299-3.864-2.232-14.845,0.526-21.589l1.809-4.425l0.949-2.32c0,0,0.079-0.246,0.259-0.725c0.318-0.848,0.965-2.445,2.028-4.663  c0.607-1.266,1.349-2.732,2.259-4.402c0.031-0.058,0.058-0.109,0.09-0.167c3.367-6.158,8.907-14.904,17.692-25.498  c0,0,3.556-3.785,2.918-1.445c0,0-1.441,2.99-4.386,7.274c1.858-2.543,4.568-6.124,5.908-7.263  C82.488,22.608,85.309,20.208,81.812,27.481z"/></g><g id="SvgjsG1996" featureKey="nameRightFeature-0" transform="matrix(1.2095564761950355,0,0,1.2095564761950355,211.57936151351439,2.275467623783104)" fill="#fff"><path d="M26.375999999999998 40.28 c-2.76 0 -5.4 -1.04 -7.12 -2.56 c-1.8 -1.56 -2.96 -3.64 -3.2 -5.68 l2.88 -0.8 c0.32 1.72 1.2 3.16 2.64 4.36 c1.4 1.2 3 1.8 4.8 1.8 c1.68 0 3.24 -0.4 4.48 -1.28 c1.24 -0.84 2.04 -2.28 2.04 -4.04 c0 -2.04 -1.08 -3.36 -2.44 -4.16 c-0.96 -0.56 -1.8 -0.8 -2.76 -1 l-3.84 -0.76 c-0.8 -0.16 -1.64 -0.44 -2.56 -0.84 c-0.92 -0.44 -1.72 -0.96 -2.4 -1.64 c-1.36 -1.32 -2.04 -3 -2.04 -5.04 c0 -1.6 0.44 -3.04 1.32 -4.28 c0.88 -1.28 2 -2.2 3.4 -2.88 c1.4 -0.64 2.88 -0.96 4.52 -0.96 c6.28 0 9.04 3.88 9.64 7 l-2.8 0.88 c-0.48 -2.08 -2.36 -5.04 -6.88 -5.04 c-3.12 -0.08 -6.16 2.12 -6.12 5.16 c0 2.24 1.4 4.04 4.24 4.6 l3.68 0.72 c2.48 0.48 4.4 1.32 5.68 2.56 c0.88 0.8 1.52 1.72 1.92 2.68 c0.4 1 0.6 1.88 0.6 2.68 c0.04 5.12 -4.28 8.64 -9.68 8.52 z M46.032000000000004 40 l0 -29.16 l18.24 0 l0 2.84 l-15.16 0 l0 10.08 l13.88 0 l0 2.84 l-13.88 0 l0 10.56 l15.32 0 l0 2.84 l-18.4 0 z M74.60800000000002 40 l0 -29.16 l3.08 0 l0 26.28 l13.84 0 l0 2.88 l-16.92 0 z M103.26400000000001 13.719999999999999 l0 10.48 l13.72 0 l0 2.8 l-13.72 0 l0 13 l-3.08 0 l0 -29.16 l18.08 0 l0 2.88 l-15 0 z"/></g>
			</g>
		</svg>
	